<?xml version="1.0" encoding="UTF-8"?>
<svg width="32px" height="32px" viewBox="0 0 32 32" version="1.1" xmlns="http://www.w3.org/2000/svg" xmlns:xlink="http://www.w3.org/1999/xlink">
    <title>icon/32/i</title>
    <g id="icon/32/i" stroke="none" stroke-width="1" fill="none" fill-rule="evenodd">
        <circle id="Oval" stroke="#FFFFFF" stroke-width="1.5" cx="15.5" cy="15.5" r="11.75"></circle>
        <path d="M15.2675781,10.1972656 C15.5664062,10.1972656 15.8242188,10.0888672 16.0410156,9.87207031 C16.2578125,9.65527344 16.3662109,9.39746094 16.3662109,9.09863281 C16.3662109,8.78808594 16.2607422,8.52734375 16.0498047,8.31640625 C15.8388672,8.10546875 15.578125,8 15.2675781,8 C14.96875,8 14.7138672,8.10839844 14.5029297,8.32519531 C14.2919922,8.54199219 14.1865234,8.79980469 14.1865234,9.09863281 C14.1865234,9.39746094 14.2919922,9.65527344 14.5029297,9.87207031 C14.7138672,10.0888672 14.96875,10.1972656 15.2675781,10.1972656 Z M17.6669922,21.4472656 L17.6669922,19.8300781 L16.2607422,19.8300781 L16.2607422,12.2099609 L13,12.2099609 L13,13.8359375 L14.4414062,13.8359375 L14.4414062,19.8300781 L13,19.8300781 L13,21.4472656 L17.6669922,21.4472656 Z" id="i" fill="#FFFFFF" fill-rule="nonzero"></path>
    </g>
</svg>