<?xml version="1.0" encoding="UTF-8"?>
<svg width="32px" height="32px" viewBox="0 0 32 32" version="1.1" xmlns="http://www.w3.org/2000/svg" xmlns:xlink="http://www.w3.org/1999/xlink">
    <title>icon/32/more-users</title>
    <g id="icon/32/more-users" stroke="none" stroke-width="1" fill="none" fill-rule="evenodd">
        <g id="icon-32-users" transform="translate(1.000000, 4.949343)">
            <path d="M15.0322627,12.6982 C18.898256,12.6982 22.0322627,15.8322068 22.0322627,19.6982 L22.0322627,21.6982 L6.0322627,21.6982 L6.0322627,19.6982 C6.0322627,15.8322068 9.16626945,12.6982 13.0322627,12.6982 L15.0322627,12.6982 Z M14.0322627,0.698200025 C16.7936865,0.698200025 19.0322627,2.93677628 19.0322627,5.69820002 C19.0322627,8.45962377 16.7936865,10.6982 14.0322627,10.6982 C11.270839,10.6982 9.0322627,8.45962377 9.0322627,5.69820002 C9.0322627,2.93677628 11.270839,0.698200025 14.0322627,0.698200025 Z" id="Combined-Shape" fill="#EEEEEE"></path>
            <path d="M22.0322627,12.6982 C25.898256,12.6982 29.0322627,15.8322068 29.0322627,19.6982 L29.0322627,21.6982 L25.0322627,21.6982 L25.0322627,19.6982 C25.0322627,16.1715317 22.4242664,13.2539936 19.0316959,12.7690078 C19.3587123,12.7223831 19.6926634,12.6982 20.0322627,12.6982 L22.0322627,12.6982 Z M21.0322627,0.698200025 C23.7936865,0.698200025 26.0322627,2.93677628 26.0322627,5.69820002 C26.0322627,8.45962377 23.7936865,10.6982 21.0322627,10.6982 C20.3210337,10.6982 19.6444887,10.5497006 19.0319417,10.2820161 C20.7987823,9.50972174 22.0322627,7.74800827 22.0322627,5.69820002 C22.0322627,3.64839177 20.7987823,1.88667831 19.0335824,1.11482054 C19.6444887,0.846699407 20.3210337,0.698200025 21.0322627,0.698200025 Z" id="Combined-Shape" fill="#EEEEEE"></path>
            <path d="M3.34910001,0 L3.34910001,6.69820002 M3.061617e-17,3.34910001 L6.69820002,3.34910001" id="Combined-Shape" stroke="#3697CF" stroke-width="1.5" stroke-linecap="round"></path>
        </g>
    </g>
</svg>