<?xml version="1.0" encoding="UTF-8"?>
<svg width="32px" height="32px" viewBox="0 0 32 32" version="1.1" xmlns="http://www.w3.org/2000/svg" xmlns:xlink="http://www.w3.org/1999/xlink">
    <title>icon/32/overview</title>
    <g id="icon/32/overview" stroke="none" stroke-width="1" fill="none" fill-rule="evenodd" stroke-linecap="round">
        <path d="M5.26666667,24.6666667 C7.07079685,24.6666667 8.53333333,23.2041302 8.53333333,21.4 C8.53333333,19.5958698 7.07079685,18.1333333 5.26666667,18.1333333 C3.46253648,18.1333333 2,19.5958698 2,21.4 C2,23.2041302 3.46253648,24.6666667 5.26666667,24.6666667 Z M13.6666667,15.3333333 C15.4707968,15.3333333 16.9333333,13.8707968 16.9333333,12.0666667 C16.9333333,10.2625365 15.4707968,8.8 13.6666667,8.8 C11.8625365,8.8 10.4,10.2625365 10.4,12.0666667 C10.4,13.8707968 11.8625365,15.3333333 13.6666667,15.3333333 Z M21.1333333,25.6 C22.9374635,25.6 24.4,24.1374635 24.4,22.3333333 C24.4,20.5292032 22.9374635,19.0666667 21.1333333,19.0666667 C19.3292032,19.0666667 17.8666667,20.5292032 17.8666667,22.3333333 C17.8666667,24.1374635 19.3292032,25.6 21.1333333,25.6 Z M26.7333333,12.5333333 C28.5374635,12.5333333 30,11.0707968 30,9.26666667 C30,7.46253648 28.5374635,6 26.7333333,6 C24.9292032,6 23.4666667,7.46253648 23.4666667,9.26666667 C23.4666667,11.0707968 24.9292032,12.5333333 26.7333333,12.5333333 Z M7.6,19.0666667 L11.3333333,15.3333333 M16,14.4 L19.7333333,19.0666667 M22.5333333,19.0666667 L25.3333333,12.5333333 M10.4,19.1333333 L11.3333333,18.2 M18.9480881,15.1276632 L19.7542484,16.12011" id="Combined-Shape" stroke="#FFFFFF" stroke-width="1.5"></path>
    </g>
</svg>