<?xml version="1.0" encoding="UTF-8"?>
<svg width="32px" height="32px" viewBox="0 0 32 32" version="1.1" xmlns="http://www.w3.org/2000/svg" xmlns:xlink="http://www.w3.org/1999/xlink">
    <title>icon/32/phone</title>
    <g id="icon/32/phone" stroke="none" stroke-width="1" fill="none" fill-rule="evenodd">
        <circle id="Oval" fill="#FFFFFF" cx="16" cy="16" r="15"></circle>
        <path d="M23.566684,11.8388348 C24.4964793,11.8388348 25.2590296,12.5548953 25.3329601,13.4656416 L25.3388348,13.6109855 C25.3388348,17.3104304 22.3398421,20.309423 18.6403973,20.309423 L14.0372723,20.309423 C10.416539,20.309423 7.46676856,17.4366895 7.3428855,13.8461469 L7.33883476,13.6109855 C7.33883476,12.6322537 8.13225367,11.8388348 9.1109855,11.8388348 L12.5888348,11.8388348 L12.5888348,15.0741289 C12.5888348,15.5869647 12.974875,16.009636 13.4722136,16.0674012 L13.5888348,16.0741289 L19.0888348,16.0741289 C19.6411195,16.0741289 20.0888348,15.6264136 20.0888348,15.0741289 L20.0888348,15.0741289 L20.0888348,11.8388348 L23.566684,11.8388348 Z" id="Combined-Shape" fill="#000000" transform="translate(16.338835, 16.074129) rotate(-315.000000) translate(-16.338835, -16.074129) "></path>
    </g>
</svg>