<?xml version="1.0" encoding="UTF-8"?>
<svg width="32px" height="32px" viewBox="0 0 32 32" version="1.1" xmlns="http://www.w3.org/2000/svg" xmlns:xlink="http://www.w3.org/1999/xlink">
    <title>icon/32/settings</title>
    <g id="icon/32/settings" stroke="none" stroke-width="1" fill="none" fill-rule="evenodd" stroke-linecap="round" stroke-linejoin="round">
        <path d="M15.501149,19.4384836 C13.8814987,19.4384836 12.5640284,18.1207984 12.5640284,16.5011481 C12.5640284,14.8812829 13.8814987,13.5638125 15.501149,13.5638125 C17.1210143,13.5638125 18.4386995,14.8812829 18.4386995,16.5011481 C18.4386995,18.1207984 17.1210143,19.4384836 15.501149,19.4384836 M24.6669169,18.3561377 C23.8684826,18.0872706 23.3331125,17.3404175 23.3331125,16.5000735 C23.3331125,15.6597294 23.8697721,14.9128764 24.6669169,14.6442242 C24.9097785,14.5638434 25.0481881,14.3076567 24.9845712,14.0587773 C24.7586885,13.1791026 24.4107302,12.3357497 23.9480036,11.5478465 C23.8141074,11.3202444 23.5233183,11.2398637 23.2912028,11.3662376 C23.0051419,11.5220559 22.6810399,11.604156 22.353929,11.604156 C21.2748069,11.604156 20.395777,10.725341 20.395777,9.64600397 C20.395777,9.31803338 20.478092,8.99500599 20.6339103,8.70894514 C20.7600693,8.47682965 20.6799035,8.18604052 20.4523014,8.05214427 C19.6652579,7.58941775 18.8210453,7.24145943 17.9413706,7.01557668 C17.6927061,6.95152999 17.4382388,7.09036945 17.3559237,7.33323102 C17.0872715,8.13166532 16.3404185,8.6670354 15.5000744,8.6670354 C14.6597304,8.6670354 13.9128773,8.13059071 13.6442251,7.33323102 C13.5636295,7.09036945 13.3076577,6.95174492 13.0587783,7.01557668 C12.1791036,7.24145943 11.3357506,7.58941775 10.5478475,8.05214427 C10.3202453,8.18604052 10.2398646,8.47682965 10.3660237,8.70894514 C10.5220569,8.99500599 10.604157,9.31910799 10.604157,9.64600397 C10.604157,10.725341 9.72534195,11.604156 8.64600492,11.604156 C8.31803433,11.604156 7.99393233,11.521841 7.70894609,11.3662376 C7.47683061,11.2398637 7.18582656,11.3202444 7.05193031,11.5478465 C6.5894187,12.33489 6.24146039,13.1791026 6.01557763,14.0587773 C5.95153095,14.3074418 6.0903704,14.5619091 6.33301706,14.6442242 C7.13145135,14.9128764 7.66703635,15.6597294 7.66703635,16.5000735 C7.66703635,17.3404175 7.13059167,18.0872706 6.33301706,18.3561377 C6.0903704,18.4363035 5.95174587,18.6924902 6.01557763,18.9413696 C6.24146039,19.8210443 6.5894187,20.6643973 7.05193031,21.4523004 C7.18582656,21.6799026 7.47683061,21.7602833 7.70894609,21.6339093 C7.99479202,21.478091 8.31910894,21.3959909 8.64600492,21.3959909 C9.72534195,21.3959909 10.604157,22.274806 10.604157,23.354143 C10.604157,23.6821136 10.521842,24.005141 10.3660237,24.2912018 C10.2398646,24.5233173 10.3202453,24.8141064 10.5478475,24.9480027 C11.3348909,25.4107292 12.1791036,25.7586875 13.0587783,25.9845703 C13.0996134,25.9959611 13.1408784,26.0006894 13.1806389,26.0006894 C13.3858892,26.0004745 13.5760949,25.8695871 13.6440102,25.6669159 C13.9126624,24.8684816 14.6595155,24.3331116 15.4998595,24.3331116 C16.3402035,24.3331116 17.0870566,24.8697712 17.3557088,25.6669159 C17.4360895,25.9097775 17.6922763,26.048402 17.9411557,25.9845703 C18.8208304,25.7586875 19.6641833,25.4107292 20.4520865,24.9480027 C20.6796886,24.8141064 20.7598544,24.5233173 20.6336953,24.2912018 C20.4776621,24.005141 20.395562,23.681039 20.395562,23.354143 C20.395562,22.274806 21.274592,21.3959909 22.3537141,21.3959909 C22.6818996,21.3959909 23.004927,21.478306 23.2909878,21.6339093 C23.5231033,21.7602833 23.8138925,21.6799026 23.9477887,21.4523004 C24.4105152,20.665257 24.7584735,19.8210443 24.9843563,18.9413696 C25.048403,18.6924902 24.9097785,18.4382378 24.6669169,18.3561377" id="Fill-1" stroke="#FFFFFF" stroke-width="1.5"></path>
    </g>
</svg>