<?xml version="1.0" encoding="UTF-8"?>
<svg width="32px" height="32px" viewBox="0 0 32 32" version="1.1" xmlns="http://www.w3.org/2000/svg" xmlns:xlink="http://www.w3.org/1999/xlink">
    <title>icon/32/transaction</title>
    <g id="icon/32/transaction" stroke="none" stroke-width="1" fill="none" fill-rule="evenodd">
        <circle id="Oval-Copy" stroke="#FFFFFF" stroke-width="1.5" cx="16.5" cy="16.5" r="11.75"></circle>
        <path d="M17.4140625,23.703125 L17.4140625,22.1328125 C18.3880208,22.0390625 19.1575521,21.7109375 19.7226562,21.1484375 C20.2877604,20.5859375 20.5703125,19.859375 20.5703125,18.96875 C20.5703125,18.4427083 20.4817708,17.9921875 20.3046875,17.6171875 C20.1276042,17.2421875 19.8828125,16.9140625 19.5703125,16.6328125 C19.2578125,16.3515625 18.8867188,16.1002604 18.4570312,15.8789062 C18.0273438,15.6575521 17.5703125,15.4440104 17.0859375,15.2382812 C16.6015625,15.0325521 16.25,14.8164062 16.03125,14.5898438 C15.8125,14.3632812 15.703125,14.0572917 15.703125,13.671875 C15.703125,13.2916667 15.7981771,12.9934896 15.9882812,12.7773438 C16.1783854,12.5611979 16.4453125,12.453125 16.7890625,12.453125 C17.1744792,12.453125 17.4713542,12.5989583 17.6796875,12.890625 C17.8880208,13.1822917 17.9921875,13.5989583 17.9921875,14.140625 L17.9921875,14.140625 L20.6328125,14.140625 C20.6328125,13.1510417 20.3606771,12.3346354 19.8164062,11.6914062 C19.2721354,11.0481771 18.5234375,10.65625 17.5703125,10.515625 L17.5703125,10.515625 L17.5703125,8.8359375 L16.328125,8.8359375 L16.328125,10.484375 C15.3385417,10.578125 14.546875,10.9101562 13.953125,11.4804688 C13.359375,12.0507812 13.0625,12.7760417 13.0625,13.65625 C13.0625,14.1822917 13.1458333,14.6302083 13.3125,15 C13.4791667,15.3697917 13.71875,15.6953125 14.03125,15.9765625 C14.34375,16.2578125 14.7161458,16.5052083 15.1484375,16.71875 C15.5807292,16.9322917 16.0520833,17.1432292 16.5625,17.3515625 C17.0729167,17.5598958 17.4296875,17.78125 17.6328125,18.015625 C17.8359375,18.25 17.9375,18.5729167 17.9375,18.984375 C17.9375,19.3541667 17.8359375,19.6445312 17.6328125,19.8554688 C17.4296875,20.0664062 17.1510417,20.171875 16.796875,20.171875 C16.3125,20.171875 15.9388021,20.0169271 15.6757812,19.7070312 C15.4127604,19.3971354 15.28125,18.9453125 15.28125,18.3515625 L15.28125,18.3515625 L12.6484375,18.3515625 C12.6484375,19.4296875 12.9518229,20.2981771 13.5585938,20.9570312 C14.1653646,21.6158854 15.0364583,22.0052083 16.171875,22.125 L16.171875,22.125 L16.171875,23.703125 L17.4140625,23.703125 Z" id="$" fill="#FFFFFF" fill-rule="nonzero"></path>
    </g>
</svg>