<?xml version="1.0" encoding="UTF-8"?>
<svg width="454px" height="311px" viewBox="0 0 454 311" version="1.1" xmlns="http://www.w3.org/2000/svg" xmlns:xlink="http://www.w3.org/1999/xlink">
    <title>ilusst</title>
    <defs>
        <circle id="path-1" cx="19" cy="19" r="19"></circle>
        <linearGradient x1="50%" y1="0%" x2="44.4444444%" y2="100%" id="linearGradient-3">
            <stop stop-color="#FFFFFF" offset="0%"></stop>
            <stop stop-color="#2E3280" offset="100%"></stop>
        </linearGradient>
        <linearGradient x1="50%" y1="0%" x2="46.875%" y2="100%" id="linearGradient-4">
            <stop stop-color="#FFFFFF" offset="0%"></stop>
            <stop stop-color="#2E3280" offset="100%"></stop>
        </linearGradient>
    </defs>
    <g id="Page-1" stroke="none" stroke-width="1" fill="none" fill-rule="evenodd">
        <g id="Apple-TV-Copy" transform="translate(-1230.000000, -953.000000)">
            <g id="ilusst" transform="translate(1230.000000, 953.000000)">
                <ellipse id="Oval" fill="#2E2E2E" cx="227" cy="292" rx="227" ry="19"></ellipse>
                <polygon id="Rectangle" fill="#808080" points="112 248 147 248 147 277 116.5 277"></polygon>
                <polygon id="Rectangle-Copy-7" fill="#808080" transform="translate(179.500000, 262.500000) scale(-1, 1) translate(-179.500000, -262.500000) " points="162 248 197 248 197 277 166.5 277"></polygon>
                <path d="M111,276 L146,276 L146,276 L146,293 L94,293 C94,283.611159 101.611159,276 111,276 Z" id="Rectangle" fill="#4D4D4D"></path>
                <path d="M179,276 L214,276 L214,276 L214,293 L162,293 C162,283.611159 169.611159,276 179,276 Z" id="Rectangle-Copy-8" fill="#4D4D4D" transform="translate(188.000000, 284.500000) scale(-1, 1) translate(-188.000000, -284.500000) "></path>
                <rect id="Rectangle" fill="#808080" x="94" y="293" width="52" height="4"></rect>
                <rect id="Rectangle-Copy-9" fill="#808080" x="162" y="293" width="52" height="4"></rect>
                <circle id="Oval" fill="#2E3280" cx="118" cy="56" r="15"></circle>
                <path d="M197.5,2 C199.985281,2 202,4.01471863 202,6.5 L202.001116,47.0000239 C203.884173,49.5070014 205,52.623193 205,56 C205,64.2842712 198.284271,71 190,71 C181.715729,71 175,64.2842712 175,56 C175,47.7157288 181.715729,41 190,41 C191.027528,41 192.030926,41.1033171 193.00037,41.3001295 L193,6.5 C193,4.01471863 195.014719,2 197.5,2 Z" id="Combined-Shape" fill="#2E3280"></path>
                <polygon id="Rectangle" fill="#026837" points="316 23 431 23 390.6057 56.5 431 90 316 90"></polygon>
                <rect id="Rectangle" fill="#4D4D4D" x="263" y="0" width="4" height="299"></rect>
                <rect id="Rectangle" fill="#DEDEDE" x="195" y="86" width="52" height="31"></rect>
                <rect id="Rectangle" fill="#B8B8B8" x="105" y="78" width="95" height="110" rx="14"></rect>
                <rect id="Rectangle" fill="#DEDEDE" x="95" y="86" width="43" height="114" rx="21.5"></rect>
                <path d="M113,86 L119.5,86 C131.374122,86 141,95.6258779 141,107.5 L141,178.5 C141,190.374122 131.374122,200 119.5,200 L113,200 L113,200 L113,86 Z" id="Rectangle-Copy-10" fill="#9F9F9F"></path>
                <path d="M193,167 L193,249 L163,249 L163,207 C163,202.665086 159.552162,199.135457 155.249179,199.003807 L155,199 C150.581722,199 147,202.581722 147,207 L147,207 L147,249 L117,249 L117,167 L193,167 Z" id="Combined-Shape" fill="#DEDEDE"></path>
                <path d="M128,86 L182,86 C187.522847,86 192,90.4771525 192,96 L192,158 L192,158 L118,158 L118,96 C118,90.4771525 122.477153,86 128,86 Z" id="Rectangle" fill="#DEDEDE"></path>
                <circle id="Oval-Copy-2" fill="#FFFFFF" cx="154" cy="57" r="38"></circle>
                <circle id="Oval-Copy" fill="#000000" cx="154.5" cy="56" r="24.5"></circle>
                <g id="Rectangle-+-Rectangle-Copy-11-Mask" transform="translate(135.000000, 37.000000)">
                    <mask id="mask-2" fill="white">
                        <use xlink:href="#path-1"></use>
                    </mask>
                    <use id="Mask" fill="#2E3280" xlink:href="#path-1"></use>
                    <rect id="Rectangle" fill="url(#linearGradient-3)" mask="url(#mask-2)" transform="translate(16.364792, 8.763672) rotate(-46.000000) translate(-16.364792, -8.763672) " x="12.8647919" y="-1.73632813" width="7" height="21"></rect>
                    <rect id="Rectangle-Copy-11" fill="url(#linearGradient-4)" mask="url(#mask-2)" transform="translate(11.882481, 18.194976) rotate(-46.000000) translate(-11.882481, -18.194976) " x="8.38248117" y="4.19497617" width="7" height="28"></rect>
                </g>
                <rect id="Rectangle" fill="#DEDEDE" x="252" y="86" width="15" height="31"></rect>
                <circle id="Oval" fill="#DEDEDE" cx="269.5" cy="101.5" r="15.5"></circle>
                <rect id="Rectangle" fill="#000000" x="95" y="164" width="23" height="8"></rect>
                <rect id="Rectangle" fill="#E79C3B" x="163" y="117" width="23" height="5"></rect>
                <rect id="Rectangle-Copy-5" fill="#2E3280" x="95" y="117" width="15" height="5"></rect>
                <rect id="Rectangle-Copy-6" fill="#E79C3B" x="95" y="125" width="15" height="5"></rect>
                <rect id="Rectangle-Copy-2" fill="#E79C3B" x="163" y="125" width="23" height="5"></rect>
                <rect id="Rectangle-Copy-3" fill="#000000" x="118" y="158" width="74" height="9"></rect>
                <rect id="Rectangle" fill="#E79C3B" x="136" y="150" width="7" height="25" rx="3.5"></rect>
                <rect id="Rectangle-Copy-4" fill="#AD272E" x="125" y="150" width="7" height="25" rx="3.5"></rect>
                <rect id="Rectangle-Copy" fill="#008045" x="270" y="0" width="99" height="62"></rect>
            </g>
        </g>
    </g>
</svg>