<?xml version="1.0" encoding="UTF-8"?>
<svg width="551px" height="85.2px" viewBox="0 0 551 85.2" version="1.1" xmlns="http://www.w3.org/2000/svg" xmlns:xlink="http://www.w3.org/1999/xlink">
    <title>logo-grey</title>
    <g id="logo-grey" stroke="none" stroke-width="1" fill="none" fill-rule="evenodd">
        <path d="M17.4,84 C18.28,84 19,83.7 19.56,83.1 C20.12,82.5 20.4,81.8 20.4,81 L20.4,81 L20.4,37.32 L49.68,81.72 C49.84,81.96 50.22,82.4 50.82,83.04 C51.42,83.68 52.36,84 53.64,84 L53.64,84 L66.48,84 C67.36,84 68.08,83.7 68.64,83.1 C69.2,82.5 69.48,81.76 69.48,80.88 L69.48,80.88 L69.48,3 C69.48,2.12 69.2,1.4 68.64,0.84 C68.08,0.28 67.36,0 66.48,0 L66.48,0 L52.08,0 C51.2,0 50.48,0.28 49.92,0.84 C49.36,1.4 49.08,2.12 49.08,3 L49.08,3 L49.08,48.36 L19.8,2.28 C19.64,1.96 19.26,1.5 18.66,0.9 C18.06,0.3 17.08,0 15.72,0 L15.72,0 L3,0 C2.12,0 1.4,0.28 0.84,0.84 C0.28,1.4 0,2.12 0,3 L0,3 L0,81 C0,81.8 0.28,82.5 0.84,83.1 C1.4,83.7 2.12,84 3,84 L3,84 L17.4,84 Z M156.28,84 C157.16,84 157.88,83.7 158.44,83.1 C159,82.5 159.28,81.8 159.28,81 L159.28,81 L159.28,69.72 C159.28,68.84 159,68.12 158.44,67.56 C157.88,67 157.16,66.72 156.28,66.72 L156.28,66.72 L117.04,66.72 L117.04,50.04 L152.68,50.04 C153.56,50.04 154.28,49.74 154.84,49.14 C155.4,48.54 155.68,47.84 155.68,47.04 L155.68,47.04 L155.68,36.6 C155.68,35.72 155.4,34.98 154.84,34.38 C154.28,33.78 153.56,33.48 152.68,33.48 L152.68,33.48 L117.04,33.48 L117.04,17.28 L155.32,17.28 C156.2,17.28 156.92,17 157.48,16.44 C158.04,15.88 158.32,15.16 158.32,14.28 L158.32,14.28 L158.32,3 C158.32,2.12 158.04,1.4 157.48,0.84 C156.92,0.28 156.2,0 155.32,0 L155.32,0 L99.28,0 C98.4,0 97.68,0.28 97.12,0.84 C96.56,1.4 96.28,2.12 96.28,3 L96.28,3 L96.28,81 C96.28,81.8 96.56,82.5 97.12,83.1 C97.68,83.7 98.4,84 99.28,84 L99.28,84 L156.28,84 Z M223.625,84 C230.185,84 235.725,82.98 240.245,80.94 C244.765,78.9 248.205,75.98 250.565,72.18 C252.925,68.38 254.105,63.84 254.105,58.56 C254.105,54.16 252.925,50.32 250.565,47.04 C248.205,43.76 245.505,41.4 242.465,39.96 C243.825,39.32 245.285,38.28 246.845,36.84 C248.405,35.4 249.725,33.58 250.805,31.38 C251.885,29.18 252.425,26.64 252.425,23.76 C252.425,18.88 251.365,14.66 249.245,11.1 C247.125,7.54 243.865,4.8 239.465,2.88 C235.065,0.96 229.425,0 222.545,0 L222.545,0 L185.945,0 C185.065,0 184.345,0.28 183.785,0.84 C183.225,1.4 182.945,2.12 182.945,3 L182.945,3 L182.945,81 C182.945,81.8 183.225,82.5 183.785,83.1 C184.345,83.7 185.065,84 185.945,84 L185.945,84 L223.625,84 Z M220.145,33.36 L204.545,33.36 L204.545,15.6 L220.145,15.6 C223.425,15.6 225.885,16.42 227.525,18.06 C229.165,19.7 229.985,21.8 229.985,24.36 C229.985,26.92 229.165,29.06 227.525,30.78 C225.885,32.5 223.425,33.36 220.145,33.36 L220.145,33.36 Z M221.225,68.4 L204.545,68.4 L204.545,48.6 L221.225,48.6 C224.585,48.6 227.165,49.56 228.965,51.48 C230.765,53.4 231.665,55.76 231.665,58.56 C231.665,61.12 230.785,63.4 229.025,65.4 C227.265,67.4 224.665,68.4 221.225,68.4 L221.225,68.4 Z M312.66,85.2 C319.86,85.2 326.14,84.02 331.5,81.66 C336.86,79.3 341.02,75.66 343.98,70.74 C346.94,65.82 348.42,59.56 348.42,51.96 L348.42,51.96 L348.42,3 C348.42,2.12 348.12,1.4 347.52,0.84 C346.92,0.28 346.22,0 345.42,0 L345.42,0 L329.82,0 C329.02,0 328.32,0.28 327.72,0.84 C327.12,1.4 326.82,2.12 326.82,3 L326.82,3 L326.82,51.84 C326.82,57.04 325.56,60.94 323.04,63.54 C320.52,66.14 317.02,67.44 312.54,67.44 C307.98,67.44 304.46,66.14 301.98,63.54 C299.5,60.94 298.26,57.04 298.26,51.84 L298.26,51.84 L298.26,3 C298.26,2.12 297.96,1.4 297.36,0.84 C296.76,0.28 296.02,0 295.14,0 L295.14,0 L279.66,0 C278.78,0 278.06,0.28 277.5,0.84 C276.94,1.4 276.66,2.12 276.66,3 L276.66,3 L276.66,51.96 C276.66,59.56 278.14,65.82 281.1,70.74 C284.06,75.66 288.24,79.3 293.64,81.66 C299.04,84.02 305.38,85.2 312.66,85.2 Z M432.625,84 C433.505,84 434.225,83.7 434.785,83.1 C435.345,82.5 435.625,81.8 435.625,81 L435.625,81 L435.625,69 C435.625,68.12 435.345,67.38 434.785,66.78 C434.225,66.18 433.505,65.88 432.625,65.88 L432.625,65.88 L396.265,65.88 L396.265,3 C396.265,2.12 395.985,1.4 395.425,0.84 C394.865,0.28 394.145,0 393.265,0 L393.265,0 L377.425,0 C376.545,0 375.825,0.28 375.265,0.84 C374.705,1.4 374.425,2.12 374.425,3 L374.425,3 L374.425,81 C374.425,81.8 374.705,82.5 375.265,83.1 C375.825,83.7 376.545,84 377.425,84 L377.425,84 L432.625,84 Z" id="NEBULA" fill="#EEEEEE" fill-rule="nonzero"></path>
        <path d="M465.995,84 C467.355,84 468.315,83.7 468.875,83.1 C469.435,82.5 469.795,81.96 469.955,81.48 L469.955,81.48 L474.515,69.24 L506.555,69.24 L511.235,81.48 C511.395,81.96 511.775,82.5 512.375,83.1 C512.975,83.7 513.875,84 515.075,84 L515.075,84 L529.835,84 C530.555,84 531.175,83.74 531.695,83.22 C532.215,82.7 532.475,82.12 532.475,81.48 C532.475,81.08 532.395,80.72 532.235,80.4 L532.235,80.4 L504.155,3.36 C503.915,2.48 503.415,1.7 502.655,1.02 C501.895,0.34 500.835,0 499.475,0 L499.475,0 L481.715,0 C480.355,0 479.295,0.34 478.535,1.02 C477.775,1.7 477.275,2.48 477.035,3.36 L477.035,3.36 L448.835,80.4 C448.755,80.72 448.715,81.08 448.715,81.48 C448.715,82.12 448.975,82.7 449.495,83.22 C450.015,83.74 450.595,84 451.235,84 L451.235,84 L465.995,84 Z" id="Path" fill="#3697CF" fill-rule="nonzero"></path>
        <circle id="Oval" fill="#AD1522" cx="539" cy="12" r="12"></circle>
    </g>
</svg>