<?xml version="1.0" encoding="UTF-8"?>
<svg width="247px" height="33px" viewBox="0 0 247 33" version="1.1" xmlns="http://www.w3.org/2000/svg" xmlns:xlink="http://www.w3.org/1999/xlink">
    <title>recaudia</title>
    <g id="Page-1" stroke="none" stroke-width="1" fill="none" fill-rule="evenodd">
        <g id="Apple-TV-Copy" transform="translate(-464.000000, -911.000000)">
            <g id="recaudia" transform="translate(464.000000, 911.263672)">
                <g id="Path" transform="translate(82.864792, 0.000000)" fill="#AD1522">
                    <path d="M16.0950347,10.631389 C17.0392468,8.79557688 22.2652515,6.52666325 24.6450399,10.8547769 C26.2306056,13.7384405 23.6579413,18.1063344 16.9270467,23.9584586 L16.1899679,24.5911513 L15.9457539,24.5911513 L15.2086751,23.9584586 C8.47778053,18.1063344 5.90511616,13.7384405 7.49068195,10.8547769 C9.89524543,6.48160481 15.2055956,8.84353357 16.0687765,10.6885762 L16.0950347,10.631389 Z"></path>
                </g>
                <path d="M10.359375,22.4160156 L10.359375,18.8183594 L3.94921875,16.6621094 L10.359375,14.4472656 L10.359375,10.8613281 L0,15.0800781 L0,18.1972656 L10.359375,22.4160156 Z M14.15625,25.2636719 L19.9921875,6.73632812 L17.1796875,6.73632812 L11.3554688,25.2636719 L14.15625,25.2636719 Z M21.421875,22.4277344 L31.7226562,18.2089844 L31.7226562,15.0917969 L21.421875,10.8730469 L21.421875,14.4589844 L27.796875,16.6269531 L21.421875,18.8417969 L21.421875,22.4277344 Z" id="&lt;/&gt;" fill="#3697CF" fill-rule="nonzero"></path>
                <text id="with" font-family="Roboto-Regular, Roboto" font-size="16" font-weight="normal" fill="#FFFFFF">
                    <tspan x="43.7226562" y="21.7363281">with</tspan>
                </text>
                <text id="By:" font-family="Roboto-Regular, Roboto" font-size="16" font-weight="normal" fill="#FFFFFF">
                    <tspan x="127.006927" y="21.7363281">By:</tspan>
                </text>
                <text id="Recaudia" font-family="RubikRoman-Bold, Rubik" font-size="18" font-weight="bold" fill="#FFFFFF">
                    <tspan x="163.006927" y="22.7363281">Recaudia</tspan>
                </text>
            </g>
        </g>
    </g>
</svg>